<svg t="1644543061793" class="icon" viewBox="0 0 1024 1024" version="1.1" xmlns="http://www.w3.org/2000/svg" p-id="1356" width="200" height="200"><path d="M726.74271 1023.997695a158.967582 158.967582 0 0 1-71.68911-16.906774 160.72413 160.72413 0 0 1-33.703762-22.725338h-225.057696A161.273051 161.273051 0 0 1 146.203639 934.85289l-15.040441-29.971098a162.261109 162.261109 0 0 1 59.063922-208.590059 217.482583 217.482583 0 0 1-16.248068-16.906773C132.370825 631.628814 114.366209 581.896553 121.721753 530.956665c10.978424-75.531558 74.104363-135.144402 122.519214-170.165575a162.151325 162.151325 0 0 1-15.589362-69.712994 164.017657 164.017657 0 0 1 29.641745-93.42639 88.486099 88.486099 0 0 1-13.283893-15.369793c-33.703762-48.963772-15.918715-119.774608 39.522327-158.089309A132.50958 132.50958 0 0 1 359.843774 0.040071a102.538482 102.538482 0 0 1 86.400198 43.035423l2.415253 3.62288h120.762666c0.76849-1.207627 1.536979-2.415253 2.415254-3.62288A102.75805 102.75805 0 0 1 657.798206 0.040071a133.936775 133.936775 0 0 1 75.31199 24.152533 131.74109 131.74109 0 0 1 52.80622 72.786953A101.001502 101.001502 0 0 1 773.07166 182.062344 94.085095 94.085095 0 0 1 759.34863 197.651706a162.700246 162.700246 0 0 1 16.796989 156.991466c51.269241 35.350526 119.664824 96.28078 131.74109 174.996082 7.575113 51.379025-9.990366 101.769992-52.037731 149.526137a230.546908 230.546908 0 0 1-21.188358 21.407927 162.151325 162.151325 0 0 1 52.257299 204.418258L871.877478 934.85289a160.614346 160.614346 0 0 1-144.695631 89.144805z" fill="#C6BBFF" p-id="1357"></path><path d="M804.1406 713.637643a195.41595 195.41595 0 0 0-6.47727-19.102458 191.463718 191.463718 0 0 0 37.436426-32.935273c123.397488-140.304261-27.885197-256.346205-94.085095-297.515295a136.461813 136.461813 0 0 0-21.956848-172.251475 69.822778 69.822778 0 0 0 31.617862-24.701455c25.250376-36.558153 10.978424-90.352431-32.935273-120.762666S619.373721 21.99692 593.684209 58.445288a67.29774 67.29774 0 0 0-8.343603 16.906773 149.196785 149.196785 0 0 0-20.859006-1.646764H453.489732a149.196785 149.196785 0 0 0-20.749222 1.646764 70.92062 70.92062 0 0 0-8.233818-16.906773C398.81718 21.99692 343.266353 16.507708 299.901578 46.369021s-57.96608 83.765376-32.935273 120.762666a69.493425 69.493425 0 0 0 31.727646 24.701455 136.461813 136.461813 0 0 0-18.663321 177.081982C210.427421 414.146231 75.83194 527.004432 194.289137 661.160775a221.325031 221.325031 0 0 0 28.21455 27.116708A198.380125 198.380125 0 0 0 213.172027 713.637643a134.705265 134.705265 0 0 0-57.746511 179.058098l14.930656 30.080883a134.705265 134.705265 0 0 0 180.155941 60.05198 129.65519 129.65519 0 0 0 35.679879-26.12865c4.062017 0 8.124034 0.658705 12.186051 0.658706H619.373721c4.062017 0 8.124034 0 12.186051-0.658706a133.058501 133.058501 0 0 0 35.679879 26.12865 134.59548 134.59548 0 0 0 180.155941-60.05198l15.040441-30.080883A134.815049 134.815049 0 0 0 804.1406 713.637643z" fill="#967CF7" p-id="1358"></path><path d="M418.578343 228.501078m-24.481886 0a24.481886 24.481886 0 1 0 48.963772 0 24.481886 24.481886 0 1 0-48.963772 0Z" fill="#704FE8" p-id="1359"></path><path d="M604.882201 228.501078m-24.481885 0a24.481886 24.481886 0 1 0 48.963771 0 24.481886 24.481886 0 1 0-48.963771 0Z" fill="#704FE8" p-id="1360"></path><path d="M427.141514 497.252902a116.590865 116.590865 0 0 1 32.935273 136.242244 167.091616 167.091616 0 0 1-27.006924 42.486502 130.313895 130.313895 0 0 1-40.510385 30.849372 120.762666 120.762666 0 0 1-49.512693 10.978424 157.650171 157.650171 0 0 1-91.889411-29.971098A202.112789 202.112789 0 0 0 342.388079 702.659219a114.39518 114.39518 0 0 0 76.84897-39.741896A133.27807 133.27807 0 0 0 454.697359 583.543316a139.425987 139.425987 0 0 0-27.555845-86.290414zM588.524349 497.252902a139.535771 139.535771 0 0 0-27.555844 86.290414A134.046559 134.046559 0 0 0 597.416873 663.136892a114.065827 114.065827 0 0 0 75.751127 39.522327 201.673652 201.673652 0 0 0 91.011136-14.930657 157.320819 157.320819 0 0 1-91.779626 29.971098 120.103961 120.103961 0 0 1-49.512693-10.978424 131.74109 131.74109 0 0 1-40.620169-30.849372 170.165575 170.165575 0 0 1-27.006924-42.486502 116.481081 116.481081 0 0 1 32.935273-136.242244zM237.873481 732.081396a114.614748 114.614748 0 0 1 80.471849-1.427196 112.199495 112.199495 0 0 1 36.119016 21.956849 134.924833 134.924833 0 0 1 25.030807 34.033115 229.778418 229.778418 0 0 1 23.054691 78.276164 147.220668 147.220668 0 0 1-1.866332 41.059307 76.848969 76.848969 0 0 1-16.906774 36.558152 94.085095 94.085095 0 0 0 7.465329-37.655995 181.363567 181.363567 0 0 0-3.732664-37.546211 268.532255 268.532255 0 0 0-10.978425-36.667936c-1.976116-6.038133-4.281585-11.966482-6.696838-17.894832a159.736072 159.736072 0 0 0-8.01425-16.906773 126.581231 126.581231 0 0 0-20.639437-29.971098 112.638632 112.638632 0 0 0-29.202609-21.956848 145.793473 145.793473 0 0 0-74.104363-11.856698zM780.427204 732.081396a145.793473 145.793473 0 0 0-74.5435 12.515403 112.638632 112.638632 0 0 0-29.202608 21.956849 126.581231 126.581231 0 0 0-20.639438 29.971098 159.187151 159.187151 0 0 0-7.904465 15.918715c-2.525038 5.928349-4.830507 11.856698-6.806623 17.894831A268.532255 268.532255 0 0 0 630.352146 867.335581a181.363567 181.363567 0 0 0-3.732665 37.76578 92.328547 92.328547 0 0 0 7.575113 37.655995 75.531558 75.531558 0 0 1-17.016557-36.558153 147.220668 147.220668 0 0 1-1.866333-41.059306 234.718709 234.718709 0 0 1 23.054691-78.276165 134.924833 134.924833 0 0 1 25.030807-34.033115 113.407122 113.407122 0 0 1 36.119016-21.956848 114.614748 114.614748 0 0 1 80.910986 1.207627zM527.484311 304.471774l16.57742-12.40562a17.236126 17.236126 0 0 0-10.319718-31.06894h-32.935273a17.236126 17.236126 0 0 0-10.319719 31.06894l16.577421 12.40562a17.455694 17.455694 0 0 0 20.419869 0z" fill="#704FE8" p-id="1361"></path><path d="M402.988981 605.170812a72.786952 72.786952 0 0 1-2.305469 9.661013l-0.878274 2.305469c-0.878274 2.415253 0.988058-2.085901 0 0s-1.536979 3.183743-2.415254 4.610939a31.288509 31.288509 0 0 1-2.525037 4.062017l-1.317411 1.976116c-0.988058 1.427195 1.976116-2.305469 0 0a70.701052 70.701052 0 0 1-7.026192 7.026191l-0.768489 0.658706 0.988058-0.76849a7.026191 7.026191 0 0 1-2.085901 1.427195l-4.171801 2.525038-2.195685 1.207626-1.427195 0.658706h1.207627a23.054691 23.054691 0 0 1-4.610938 1.646764l-4.830507 1.31741h-2.415253c-2.305469 0-0.988058 0 0 0a43.913697 43.913697 0 0 0-5.379428 0H355.891541a14.601304 14.601304 0 0 0-14.49152 14.49152A14.820873 14.820873 0 0 0 355.891541 671.919631a71.798894 71.798894 0 0 0 74.872853-59.063922 15.918715 15.918715 0 0 0-1.536979-10.978424 14.49152 14.49152 0 0 0-26.458003 3.513096zM167.940919 491.324553a88.595883 88.595883 0 0 0-18.1144 56.648669 198.599693 198.599693 0 0 0 3.293527 32.276567 59.393275 59.393275 0 0 0 9.002308 27.446061 15.040441 15.040441 0 0 0 19.870948 5.159859A14.49152 14.49152 0 0 0 187.153161 592.874977s-3.073959-4.720722-2.195684-2.964175a29.312393 29.312393 0 0 1-1.427196-4.391369 95.841643 95.841643 0 0 1-2.0859-10.978424 165.335068 165.335068 0 0 1-2.634822-24.481886 68.944504 68.944504 0 0 1 2.195685-21.956849c0-1.536979 0.878274-3.073959 1.427195-4.610938s0.658705-1.976116 1.097842-2.964174v-0.988059c0.658705-1.427195 1.427195-2.85439 2.195685-4.281585s1.097842-1.756548 1.756548-2.634822 1.207627-1.756548 0-0.988058a14.930657 14.930657 0 0 0 0-20.529653 14.711088 14.711088 0 0 0-20.529653 0zM581.059021 616.039452c-1.427195 16.028499 10.319719 31.947214 21.188359 42.596286a96.829701 96.829701 0 0 0 37.326642 22.615554 14.711088 14.711088 0 0 0 17.894831-10.209935 14.820873 14.820873 0 0 0-10.10015-17.785047l-3.842448-1.317411h-0.548922c2.415253 0.988058 0 0 0 0a81.569692 81.569692 0 0 1-13.832814-8.124034c-0.76849-0.548921-2.85439-2.415253 0 0l-1.207627-0.988058-3.293527-2.964175a68.724935 68.724935 0 0 1-5.598996-5.70878l-2.634822-3.073959c-1.097842-1.317411 2.195685 3.073959 0.548921 0.76849l-1.207627-1.646764c-1.536979-2.415253-3.073959-4.830507-4.391369-7.355544a5.598996 5.598996 0 0 0-0.988058-1.976116c0.76849 0.658705 1.097842 2.85439 0 0.548921a40.290817 40.290817 0 0 1-0.988059-4.720723v3.842449a29.312393 29.312393 0 0 1 0-4.39137 14.601304 14.601304 0 0 0-14.49152-14.601304 14.930657 14.930657 0 0 0-14.491519 14.601304zM815.338593 489.67779s-2.305469-1.866332-0.878274-0.658706l1.646764 1.427195 2.744606 2.634822c0.76849 0.878274 1.646764 1.646764 2.305469 2.525038l1.427195 1.646763c1.207627 1.427195-1.756548-2.415253-0.658706-0.878274s2.964175 4.281585 4.171802 6.477271l1.866332 3.403311a6.696839 6.696839 0 0 0 0.768489 1.53698c1.097842 2.305469-0.988058-2.305469 0-0.658706s1.756548 4.501154 2.415254 6.916407 0.76849 5.269644 1.536979 7.575113v-1.317411 5.598996a68.395583 68.395583 0 0 1 0 8.124034 14.271951 14.271951 0 0 0 4.171801 10.209935 15.150225 15.150225 0 0 0 10.319719 4.281585 14.601304 14.601304 0 0 0 10.209935-4.281585 15.918715 15.918715 0 0 0 4.281585-10.209935 74.5435 74.5435 0 0 0-5.928349-37.54621 79.374007 79.374007 0 0 0-25.140591-31.83743 14.711088 14.711088 0 0 0-10.978425-1.427196 14.601304 14.601304 0 0 0-8.672955 6.587055 14.820873 14.820873 0 0 0-1.427195 10.978424 17.236126 17.236126 0 0 0 6.587055 8.672955zM676.461527 380.662038a78.715301 78.715301 0 0 0 45.011539-63.894429 14.271951 14.271951 0 0 0-4.171801-10.209935 15.150225 15.150225 0 0 0-10.319719-4.281585 14.820873 14.820873 0 0 0-10.209934 4.281585 16.796989 16.796989 0 0 0-4.281586 10.209935 7.465328 7.465328 0 0 1 0 1.536979v-3.842448a45.670245 45.670245 0 0 1-3.732664 14.930657c0-0.76849 1.427195-3.293527 0-1.097843l-0.76849 1.756548-1.976116 3.62288c0 0.76849-3.62288 6.696839-4.39137 6.587055s2.525038-3.073959 0.658706-0.878274l-1.207627 1.427195a29.971098 29.971098 0 0 1-2.525037 2.744606 52.586652 52.586652 0 0 1-5.708781 5.379428c-2.195685 1.756548 0.878274-0.548921 0.878274-0.658706s-1.756548 1.207627-1.866332 1.317411a30.959156 30.959156 0 0 1-3.183743 1.976116 56.978021 56.978021 0 0 1-7.24576 3.842449 14.052383 14.052383 0 0 0-6.696839 8.672955 14.820873 14.820873 0 0 0 1.427195 10.978424 14.162167 14.162167 0 0 0 8.672955 6.587055 16.467636 16.467636 0 0 0 10.978425-1.427195zM711.592484 278.123556a14.49152 14.49152 0 0 0 0-28.98304 14.49152 14.49152 0 0 0 0 28.98304zM201.315329 756.124145a75.421774 75.421774 0 0 0-37.76578 52.916004A178.618961 178.618961 0 0 0 171.014878 889.29243a14.49152 14.49152 0 0 0 27.885197-7.684897 315.519911 315.519911 0 0 1-7.684897-35.240742 103.416756 103.416756 0 0 1 0-27.885197 48.744203 48.744203 0 0 1 24.811239-37.326642 14.49152 14.49152 0 1 0-14.601304-25.030807zM774.718424 748.219679A91.560058 91.560058 0 0 0 659.44497 834.400309a14.49152 14.49152 0 0 0 28.983039 0v-4.501154-1.427195c0-1.427195 0.878274-4.940291 1.53698-7.355544s1.646764-5.269644 2.525037-7.904466 0 0 0.658706-1.317411l1.646763-3.403311a63.894429 63.894429 0 0 1 3.732665-6.587055l2.634821-3.732664c-1.097842 1.536979 0-0.76849 0.988059-1.207627s3.293527-3.732664 5.159859-5.489212l2.744606-2.634821 1.756548-1.427196a69.822778 69.822778 0 0 1 13.174109-7.904465c4.171801-1.976116-1.976116 0.548921 2.305469-0.878274l3.62288-1.317411c2.415253-0.76849 4.940291-1.317411 7.465328-1.866332l3.842449-0.76849H759.897551h2.195685l4.501154 1.097843a14.49152 14.49152 0 0 0 7.684897-27.994982z" fill="#FFFFFF" p-id="1362"></path><path d="M396.072574 65.142127c-17.34591-23.274259-54.892121-24.372102-84.424082-2.525038S272.565302 120.802737 290.020996 144.296565a42.596286 42.596286 0 0 0 14.711088 12.186051l98.805818-73.775011a42.266933 42.266933 0 0 0-7.465328-17.565478zM623.435738 69.094359c17.236126-23.164475 54.892121-24.372102 84.424082-2.525037s39.08319 58.405217 21.956849 81.679476a42.596286 42.596286 0 0 1-14.711089 12.186051l-98.805817-73.775011a43.913697 43.913697 0 0 1 7.135975-17.565479zM356.769815 397.239458a860.928024 860.928024 0 0 0 85.631709 21.078575 403.127736 403.127736 0 0 0 43.035422 4.830506c7.135976 0.658705 14.381736 0 21.956849 0.76849h21.956848a683.297121 683.297121 0 0 0 86.509983-10.319719 638.944287 638.944287 0 0 0 85.851277-20.859006 353.395474 353.395474 0 0 1-82.55775 34.911389 391.161254 391.161254 0 0 1-88.925236 15.589362 294.880473 294.880473 0 0 1-90.352431-9.441444 319.362359 319.362359 0 0 1-83.106671-36.558153z" fill="#704FE8" p-id="1363"></path></svg>
