<svg t="1644586997918" class="icon" viewBox="0 0 1024 1024" version="1.1" xmlns="http://www.w3.org/2000/svg" p-id="2544" width="200" height="200"><path d="M469.333333 682.666667c0-46.933333-38.4-85.333333-85.333333-85.333334s-85.333333 38.4-85.333333 85.333334H256c0-72.533333 55.466667-128 128-128s128 55.466667 128 128h-42.666667zM896 256v554.666667H170.666667V256h725.333333zM213.333333 298.666667v469.333333h640V298.666667H213.333333z m597.333334 128v42.666666h-256v-42.666666h256z m0 85.333333v42.666667h-256v-42.666667h256z m-42.666667 85.333333v42.666667h-213.333333v-42.666667h213.333333z m-384-42.666666c-46.933333 0-85.333333-38.4-85.333333-85.333334s38.4-85.333333 85.333333-85.333333 85.333333 38.4 85.333333 85.333333-38.4 85.333333-85.333333 85.333334z m0-42.666667c25.6 0 42.666667-17.066667 42.666667-42.666667s-17.066667-42.666667-42.666667-42.666666-42.666667 17.066667-42.666667 42.666666 17.066667 42.666667 42.666667 42.666667z" fill="#444444" p-id="2545"></path></svg>
